<?xml version="1.0" encoding="utf-8"?>
<!-- Generator: Adobe Illustrator 19.0.0, SVG Export Plug-In . SVG Version: 6.00 Build 0)  -->
<svg version="1.1" id="Layer_1" xmlns="http://www.w3.org/2000/svg" xmlns:xlink="http://www.w3.org/1999/xlink" x="0px" y="0px"
	 viewBox="0 0 200 42.173" enable-background="new 0 0 200 42.173" xml:space="preserve">
<g>
	<path d="M94.384,14.19c6.029,0,10.878,4.499,10.878,10.093c0,5.6-4.849,10.095-10.878,10.095c-6.027,0-10.875-4.495-10.875-10.095
		C83.509,18.689,88.357,14.19,94.384,14.19z M94.384,31.495c4.29,0,7.769-3.231,7.769-7.211c0-3.976-3.479-7.207-7.769-7.207
		c-4.289,0-7.768,3.232-7.768,7.207C86.617,28.263,90.096,31.495,94.384,31.495z"/>
	<path d="M118.409,17.247h-7.769c-0.87,0-1.554-0.576-1.554-1.385c0-0.805,0.684-1.38,1.554-1.38h18.644
		c0.871,0,1.554,0.575,1.554,1.38c0,0.809-0.683,1.385-1.554,1.385h-7.769v15.517c0,0.809-0.683,1.442-1.555,1.442
		c-0.869,0-1.552-0.634-1.552-1.442V17.247z"/>
	<path d="M140.563,32.764c0,0.809-0.683,1.442-1.553,1.442c-0.871,0-1.555-0.634-1.555-1.442V15.807
		c0-0.806,0.684-1.444,1.555-1.444c0.87,0,1.553,0.638,1.553,1.444V32.764z"/>
	<path d="M150.768,16.848c-0.311-0.291-0.497-0.64-0.497-1.041c0-0.806,0.685-1.444,1.554-1.444c0.622,0,0.933,0.175,1.554,0.75
		l7.893,7.154l7.893-7.154c0.621-0.575,0.935-0.75,1.554-0.75c0.87,0,1.555,0.638,1.555,1.444c0,0.401-0.188,0.75-0.499,1.041
		l-8.264,7.436l8.264,7.441c0.312,0.286,0.499,0.635,0.499,1.039c0,0.809-0.685,1.442-1.555,1.442c-0.619,0-0.933-0.174-1.554-0.75
		l-7.893-7.094l-7.893,7.094c-0.621,0.576-0.932,0.75-1.554,0.75c-0.869,0-1.554-0.634-1.554-1.442c0-0.404,0.187-0.753,0.497-1.039
		l8.265-7.441L150.768,16.848z"/>
	<path d="M189.123,14.19c6.03,0,10.877,4.499,10.877,10.093c0,5.6-4.847,10.095-10.877,10.095c-6.024,0-10.873-4.495-10.873-10.095
		C178.25,18.689,183.099,14.19,189.123,14.19z M189.123,31.495c4.289,0,7.77-3.231,7.77-7.211c0-3.976-3.481-7.207-7.77-7.207
		c-4.285,0-7.766,3.232-7.766,7.207C181.357,28.263,184.838,31.495,189.123,31.495z"/>
</g>
<polygon fill="#EA2B76" points="20.827,0 11.358,1.776 11.358,12.314 20.827,14.06 "/>
<polygon fill="#D43017" points="22.717,0 32.186,1.776 32.186,12.314 22.717,14.06 "/>
<polygon fill="#F0FC43" points="43.543,28.115 34.078,29.892 34.078,40.43 43.543,42.173 "/>
<polygon fill="#E66940" points="45.437,28.115 54.902,29.892 54.902,40.43 45.437,42.173 "/>
<polygon fill="#EA2B76" points="54.902,14.06 45.437,15.836 45.437,26.373 54.902,28.115 "/>
<polygon fill="#D43017" points="56.795,14.06 66.261,15.836 66.261,26.373 56.795,28.115 "/>
<polygon fill="#6DF343" points="9.466,14.06 0,15.836 0,26.373 9.466,28.115 "/>
<polygon fill="#4CAF41" points="11.358,14.06 20.827,15.836 20.827,26.373 11.358,28.115 "/>
<polygon fill="#5FDEF4" points="32.186,14.06 22.717,15.836 22.717,26.373 32.186,28.115 "/>
<polygon fill="#3FAAB2" points="34.078,14.06 43.543,15.836 43.543,26.373 34.078,28.115 "/>
<polygon fill="#5FDEF4" points="66.261,0 56.795,1.776 56.795,12.314 66.261,14.06 "/>
<polygon fill="#3FAAB2" points="68.157,0 77.622,1.776 77.622,12.314 68.157,14.06 "/>
<g>
</g>
<g>
</g>
<g>
</g>
<g>
</g>
<g>
</g>
<g>
</g>
<g>
</g>
<g>
</g>
<g>
</g>
<g>
</g>
<g>
</g>
<g>
</g>
<g>
</g>
<g>
</g>
<g>
</g>
<g>
</g>
<g>
</g>
<g>
</g>
<g>
</g>
<g>
</g>
<g>
</g>
<g>
</g>
<g>
</g>
<g>
</g>
</svg>
